# xmcd
#
# Track frame offsets:
#	150
#	30957
#	83087
#	135500
#	155461
#	182995
#
# Disc length: 2870 seconds
#
# Revision: 2
# Processed by: cddbd v1.5.1PL2 Copyright (c) Steve Scherf et al.
# Submitted via: EasyCDDAExtractor 8.0.2.1
#
DISCID=3e0b3406
DTITLE=Dio - National Forest Brussels 04-05-86 Disc 2
DYEAR=1986
DGENRE=Hard Rock
TTITLE0=Keyboard Solo
TTITLE1=Sacred Heart
TTITLE2=Rock and Roll Children - Long Live Rock and Roll - Rock and Roll Children Re
TTITLE2=prise
TTITLE3=Stand Up And Shout
TTITLE4=Rainbow In The Dark
TTITLE5=We Rock
EXTD=
EXTT0=
EXTT1=
EXTT2=
EXTT3=
EXTT4=
EXTT5=
PLAYORDER=
